<svg width="183" height="60" viewBox="0 0 183 60" fill="none" xmlns="http://www.w3.org/2000/svg">
<path fill-rule="evenodd" clip-rule="evenodd" d="M183 31C183 32.6569 181.657 34 180 34L114 34C112.343 34 111 32.6569 111 31V28C111 26.3431 112.343 25 114 25L180 25C181.657 25 183 26.3431 183 28V31Z" fill="black"/>
<path d="M41.4152 40.5114C43.2101 40.5114 44.6211 42.0837 44.2157 43.8321C43.1561 48.4016 41.069 52.049 37.9545 54.7743C34.1457 58.1036 29.0718 59.7683 22.7327 59.7683C15.861 59.7683 10.3476 57.3046 6.19257 52.3771C2.06419 47.4497 0 40.8576 0 32.6009V27.0076C0 21.6007 0.958849 16.8465 2.87655 12.7447C4.82088 8.64296 7.56426 5.50007 11.1067 3.31602C14.6491 1.10534 18.7508 0 23.4119 0C29.5912 0 34.5452 1.73126 38.2741 5.19377C41.307 7.98836 43.3091 11.664 44.2804 16.2206C44.6505 17.9569 43.2452 19.4966 41.4699 19.4966H39.6753C38.1832 19.4966 36.9396 18.3938 36.5987 16.9412C35.8162 13.6069 34.5236 11.1027 32.7207 9.42869C30.5101 7.35118 27.4071 6.31243 23.4119 6.31243C18.5111 6.31243 14.6624 8.12359 11.8658 11.7459C9.09575 15.3682 7.71075 20.522 7.71075 27.2074V32.8406C7.71075 39.153 9.02916 44.1737 11.666 47.9025C14.3028 51.6314 17.9917 53.4958 22.7327 53.4958C26.9943 53.4958 30.257 52.537 32.521 50.6193C34.3867 49.0356 35.7399 46.5066 36.5808 43.0322C36.9286 41.5949 38.1661 40.5114 39.6449 40.5114H41.4152Z" fill="black"/>
<path d="M100 55.9692C100 57.6261 98.6569 58.9692 97 58.9692H95.2892C93.6324 58.9692 92.2893 57.6261 92.2893 55.9692V35.0815C92.2893 33.4246 90.9461 32.0815 89.2893 32.0815H65.9644C64.3076 32.0815 62.9644 33.4246 62.9644 35.0815V55.9692C62.9644 57.6261 61.6213 58.9692 59.9644 58.9692H58.2936C56.6368 58.9692 55.2936 57.6261 55.2936 55.9692V3.79904C55.2936 2.14219 56.6368 0.799041 58.2936 0.799041H59.9644C61.6213 0.799041 62.9644 2.14219 62.9644 3.79904V22.809C62.9644 24.4659 64.3076 25.809 65.9644 25.809H89.2893C90.9461 25.809 92.2893 24.4659 92.2893 22.809V3.79904C92.2893 2.14218 93.6324 0.799041 95.2893 0.799041H97C98.6569 0.799041 100 2.14219 100 3.79904V55.9692Z" fill="black"/>
</svg>
