<svg width="180" height="70" viewBox="0 0 180 70" fill="none" xmlns="http://www.w3.org/2000/svg">
<path d="M41.4152 45.5114C43.2101 45.5114 44.6211 47.0837 44.2157 48.8321C43.1561 53.4016 41.069 57.049 37.9545 59.7743C34.1457 63.1036 29.0718 64.7683 22.7327 64.7683C15.861 64.7683 10.3476 62.3046 6.19257 57.3771C2.06419 52.4497 0 45.8576 0 37.6009V32.0076C0 26.6007 0.958849 21.8465 2.87655 17.7447C4.82088 13.643 7.56426 10.5001 11.1067 8.31602C14.6491 6.10534 18.7508 5 23.4119 5C29.5912 5 34.5452 6.73126 38.2741 10.1938C41.307 12.9884 43.3091 16.664 44.2804 21.2206C44.6505 22.9569 43.2452 24.4966 41.4699 24.4966H39.6753C38.1832 24.4966 36.9396 23.3938 36.5987 21.9412C35.8162 18.6069 34.5236 16.1027 32.7207 14.4287C30.5101 12.3512 27.4071 11.3124 23.4119 11.3124C18.5111 11.3124 14.6624 13.1236 11.8658 16.7459C9.09575 20.3682 7.71075 25.522 7.71075 32.2074V37.8406C7.71075 44.153 9.02916 49.1737 11.666 52.9025C14.3028 56.6314 17.9917 58.4958 22.7327 58.4958C26.9943 58.4958 30.257 57.537 32.521 55.6193C34.3867 54.0356 35.7399 51.5066 36.5808 48.0322C36.9286 46.5949 38.1661 45.5114 39.6449 45.5114H41.4152Z" fill="black"/>
<path d="M100 60.9692C100 62.6261 98.6569 63.9692 97 63.9692H95.2892C93.6324 63.9692 92.2893 62.6261 92.2893 60.9692V40.0815C92.2893 38.4246 90.9461 37.0815 89.2893 37.0815H65.9644C64.3076 37.0815 62.9644 38.4246 62.9644 40.0815V60.9692C62.9644 62.6261 61.6213 63.9692 59.9644 63.9692H58.2936C56.6368 63.9692 55.2936 62.6261 55.2936 60.9692V8.79904C55.2936 7.14219 56.6368 5.79904 58.2936 5.79904H59.9644C61.6213 5.79904 62.9644 7.14219 62.9644 8.79904V27.809C62.9644 29.4659 64.3076 30.809 65.9644 30.809H89.2893C90.9461 30.809 92.2893 29.4659 92.2893 27.809V8.79904C92.2893 7.14218 93.6324 5.79904 95.2893 5.79904H97C98.6569 5.79904 100 7.14219 100 8.79904V60.9692Z" fill="black"/>
<path d="M111 34.5H145.5M180 34.5H145.5M145.5 34.5V0M145.5 34.5V69.9079" stroke="black" stroke-width="8"/>
</svg>
