<svg width="135" height="135" viewBox="0 0 135 135" fill="none" xmlns="http://www.w3.org/2000/svg">
<path fill-rule="evenodd" clip-rule="evenodd" d="M65.0665 2.35403C66.1106 -0.05585 69.528 -0.0558455 70.5721 2.35404L87.3276 41.0298C87.748 42 88.648 42.6773 89.6967 42.8126L131.974 48.2641C134.439 48.582 135.47 51.589 133.719 53.3532L102.231 85.0671C101.516 85.7874 101.213 86.8205 101.427 87.8127L110.738 131.026C111.288 133.58 108.536 135.568 106.284 134.243L69.3406 112.508C68.4016 111.956 67.237 111.956 66.2981 112.508L29.3469 134.248C27.1104 135.564 24.3713 133.612 24.8851 131.068L33.6231 87.8089C33.8214 86.8274 33.5169 85.8117 32.8114 85.1012L1.2905 53.3539C-0.462806 51.588 0.572256 48.5782 3.04083 48.2642L45.9394 42.8072C46.9901 42.6735 47.8925 41.9957 48.3136 41.0238L65.0665 2.35403ZM70.5721 16.279C69.528 13.8691 66.1106 13.8691 65.0665 16.279L52.1397 46.1173C51.7186 47.0892 50.8162 47.767 49.7655 47.9007L14.8858 52.3376C12.4173 52.6516 11.3822 55.6614 13.1355 57.4273L38.8228 83.2991C39.5283 84.0096 39.8328 85.0253 39.6345 86.0068L32.7664 120.009C32.2526 122.552 34.9917 124.504 37.2282 123.188L66.2981 106.086C67.237 105.533 68.4016 105.533 69.3406 106.086L98.2145 123.073C100.467 124.398 103.219 122.41 102.668 119.856L95.3833 86.0433C95.1695 85.051 95.472 84.018 96.1871 83.2977L121.891 57.4094C123.642 55.6452 122.611 52.6383 120.146 52.3203L85.8682 47.9003C84.8195 47.765 83.9194 47.0877 83.4991 46.1175L70.5721 16.279Z" fill="black"/>
</svg>
