<svg width="144" height="168" viewBox="0 0 144 168" fill="none" xmlns="http://www.w3.org/2000/svg">
<path fill-rule="evenodd" clip-rule="evenodd" d="M130.689 53.962C138.724 65.6652 144 80.3791 144 95.8809V96.1116L143.975 96.3409C142.283 111.912 138.687 124.868 131.749 135.63C124.775 146.45 114.655 154.696 100.536 161.239L100.346 161.327L100.149 161.396C83.2869 167.285 71.4764 169.405 55.8631 165.65C46.4214 163.379 37.667 159.047 29.8738 153.599C22.6142 148.523 16.7903 143.204 12.2239 136.767C7.64964 130.318 4.47174 122.937 2.25871 113.898C-0.625801 102.116 -0.749163 89.7245 1.89795 77.8875C4.34823 66.9308 8.31981 58.215 14.8525 50.534C21.3221 42.9271 30.1045 36.5727 41.7766 30.0127L45.9478 37.4345C34.6591 43.779 26.8675 49.5478 21.3377 56.0496C15.871 62.4773 12.418 69.8557 10.2063 79.7455C7.8453 90.3031 7.95555 101.366 10.5281 111.874C12.5398 120.091 15.3328 126.435 19.1678 131.841C23.0105 137.258 28.0341 141.924 34.7523 146.621C41.8458 151.581 49.6349 155.395 57.8541 157.372C71.1753 160.576 81.1603 158.994 97.1441 153.427C110.032 147.424 118.702 140.157 124.594 131.018C130.519 121.826 133.863 110.387 135.486 95.6526C135.434 82.1417 130.804 69.1708 123.67 58.7807C116.469 48.2919 106.938 40.7436 97.4761 37.7866L100.016 29.6606C111.713 33.3161 122.681 42.299 130.689 53.962Z" fill="black"/>
<path fill-rule="evenodd" clip-rule="evenodd" d="M67.3779 81.9948V0H75.8915V81.9948H67.3779Z" fill="black"/>
</svg>
