<svg width="157" height="120" viewBox="0 0 157 120" fill="none" xmlns="http://www.w3.org/2000/svg">
<path fill-rule="evenodd" clip-rule="evenodd" d="M65.1326 3.99766C67.092 2.39817 70.0297 3.79232 70.0297 6.32164V113.851C70.0297 116.35 67.1529 117.753 65.1832 116.215L29.3604 88.2392C28.833 87.8273 28.183 87.6036 27.5139 87.6036H3C1.34315 87.6036 0 86.2605 0 84.6036V35.2433C0 33.5691 1.37019 32.219 3.04412 32.2436L3.61503 32.252C7.56759 32.3101 13.6172 32.3798 18.918 32.4001C21.5701 32.4103 24.0216 32.408 25.9248 32.3862C26.8779 32.3752 27.6775 32.3595 28.2886 32.3387V32.3387C28.6683 32.3258 29.038 32.214 29.3568 32.0073C29.3987 31.9801 29.4422 31.9518 29.4873 31.9221C30.2573 31.4164 31.3152 30.669 32.6177 29.7124C35.2127 27.8066 38.6338 25.1775 42.3758 22.246C49.8525 16.3889 58.5169 9.39818 64.2141 4.74741L65.1326 3.99766ZM31.4273 39.0069C31.2348 39.0898 30.8086 39.2651 30.2767 39.3411C29.4986 39.4522 27.8219 39.4901 26.0068 39.511C24.0498 39.5335 21.5563 39.5356 18.8907 39.5254C16.0481 39.5145 12.9947 39.4895 10.1619 39.4597C8.49073 39.4421 7.12529 40.7909 7.12529 42.4622V77.4783C7.12529 79.1352 8.46843 80.4783 10.1253 80.4783H29.9665C30.6356 80.4783 31.2856 80.702 31.813 81.1139L58.0579 101.61C60.0276 103.148 62.9044 101.745 62.9044 99.2455V21.2729C62.9044 18.7503 59.9789 17.3523 58.0113 18.931C54.3016 21.9075 50.3989 25.0122 46.7699 27.8551C43.01 30.8006 39.5203 33.4834 36.8354 35.4553C35.498 36.4375 34.3236 37.2703 33.399 37.8776C32.9412 38.1784 32.4972 38.4551 32.0993 38.674C31.9014 38.783 31.671 38.9019 31.4273 39.0069Z" fill="black"/>
<path fill-rule="evenodd" clip-rule="evenodd" d="M157 62C157 63.6569 155.657 65 154 65H88C86.3431 65 85 63.6569 85 62V59C85 57.3431 86.3431 56 88 56H154C155.657 56 157 57.3431 157 59V62Z" fill="black"/>
</svg>
