<svg width="28" height="22" viewBox="0 0 28 22" fill="none" xmlns="http://www.w3.org/2000/svg">
<path d="M5.76087 16.8913H7.32609M10.0652 16.8913H22.3913M22.8478 12.587H25.0217C26.1263 12.587 27.0217 13.4824 27.0217 14.587V19C27.0217 20.1046 26.1263 21 25.0217 21H3C1.89543 21 1 20.1046 1 19V14.587C1 13.4824 1.89543 12.587 3 12.587H4.84783H12.413H15.6739H22.8478Z" stroke="black"/>
<path fill-rule="evenodd" clip-rule="evenodd" d="M22.5652 9.86413C22.5652 10.6368 22.4674 11.386 22.2836 12.1H23.3128C23.4779 11.3816 23.5652 10.6331 23.5652 9.86413C23.5652 4.41632 19.1854 0 13.7826 0C8.37982 0 4 4.41632 4 9.86413C4 10.6331 4.08727 11.3816 4.25238 12.1H5.28159C5.09782 11.386 5 10.6368 5 9.86413C5 4.96077 8.93991 1 13.7826 1C18.6253 1 22.5652 4.96077 22.5652 9.86413ZM11.8726 12.1C11.2077 11.5575 10.7826 10.728 10.7826 9.79835C10.7826 8.16401 12.0966 6.83911 13.7174 6.83911C15.3382 6.83911 16.6522 8.16401 16.6522 9.79835C16.6522 10.728 16.2271 11.5575 15.5622 12.1H11.8726ZM15.6522 9.79835C15.6522 10.8883 14.7781 11.7576 13.7174 11.7576C12.6566 11.7576 11.7826 10.8883 11.7826 9.79835C11.7826 8.70846 12.6566 7.83911 13.7174 7.83911C14.7781 7.83911 15.6522 8.70846 15.6522 9.79835Z" fill="#040404"/>
</svg>
