<svg width="39" height="44" viewBox="0 0 39 44" fill="none" xmlns="http://www.w3.org/2000/svg">
<g filter="url(#filter0_d)">
<path fill-rule="evenodd" clip-rule="evenodd" d="M32.0841 11.5961C33.8108 14.111 34.9446 17.2729 34.9446 20.6041V20.6537L34.9392 20.703C34.5755 24.0492 33.8029 26.8332 32.312 29.146C30.8132 31.471 28.6385 33.2431 25.6044 34.6492L25.5637 34.668L25.5214 34.6828C21.8978 35.9484 19.3598 36.4039 16.0046 35.5969C13.9756 35.1089 12.0944 34.1782 10.4197 33.0072C8.85963 31.9165 7.60812 30.7736 6.62682 29.3902C5.64385 28.0045 4.96095 26.4184 4.48538 24.4759C3.86552 21.9441 3.83901 19.2812 4.40786 16.7375C4.9344 14.383 5.78787 12.51 7.19169 10.8594C8.58196 9.22473 10.4692 7.85922 12.9775 6.44953L13.8739 8.04441C11.448 9.4078 9.77363 10.6475 8.58532 12.0447C7.41057 13.4259 6.66854 15.0115 6.19326 17.1368C5.6859 19.4055 5.70959 21.7829 6.26241 24.0409C6.69471 25.8066 7.29491 27.17 8.11902 28.3317C8.9448 29.4959 10.0243 30.4985 11.468 31.5079C12.9924 32.5737 14.6662 33.3933 16.4324 33.8181C19.2951 34.5067 21.4408 34.1668 24.8756 32.9705C27.6452 31.6803 29.5082 30.1188 30.7743 28.1548C32.0476 26.1795 32.7661 23.7213 33.115 20.5551C33.1039 17.6517 32.1088 14.8643 30.5758 12.6316C29.0283 10.3776 26.9803 8.75552 24.9469 8.12008L25.4926 6.37386C28.0064 7.1594 30.3634 9.08976 32.0841 11.5961Z" fill="#FF6161"/>
<path fill-rule="evenodd" clip-rule="evenodd" d="M18.479 17.6201V0H20.3085V17.6201H18.479Z" fill="#FF6161"/>
</g>
<defs>
<filter id="filter0_d" x="0" y="0" width="38.9446" height="44" filterUnits="userSpaceOnUse" color-interpolation-filters="sRGB">
<feFlood flood-opacity="0" result="BackgroundImageFix"/>
<feColorMatrix in="SourceAlpha" type="matrix" values="0 0 0 0 0 0 0 0 0 0 0 0 0 0 0 0 0 0 127 0"/>
<feOffset dy="4"/>
<feGaussianBlur stdDeviation="2"/>
<feColorMatrix type="matrix" values="0 0 0 0 0 0 0 0 0 0 0 0 0 0 0 0 0 0 0.25 0"/>
<feBlend mode="normal" in2="BackgroundImageFix" result="effect1_dropShadow"/>
<feBlend mode="normal" in="SourceGraphic" in2="effect1_dropShadow" result="shape"/>
</filter>
</defs>
</svg>
