<svg width="45" height="32" viewBox="0 0 45 32" fill="none" xmlns="http://www.w3.org/2000/svg">
<path d="M18.7358 25.717H4.03C4.00215 25.717 3.98822 25.717 3.97644 25.7169C2.33801 25.704 1.01296 24.379 1.00009 22.7405C1 22.7288 1 22.7148 1 22.687V4.03C1 4.00215 1 3.98822 1.00009 3.97644C1.01296 2.33801 2.33801 1.01296 3.97644 1.00009C3.98822 1 4.00215 1 4.03 1H40.6115C40.6394 1 40.6533 1 40.6651 1.00009C42.3035 1.01296 43.6285 2.33801 43.6414 3.97644C43.6415 3.98822 43.6415 4.00215 43.6415 4.03V22.687C43.6415 22.7148 43.6415 22.7288 43.6414 22.7405C43.6285 24.379 42.3035 25.704 40.6651 25.7169C40.6533 25.717 40.6394 25.717 40.6115 25.717H25.717M18.7358 25.717V31M18.7358 25.717H25.717M25.717 25.717V31M13.6415 31H31.1887" stroke="url(#paint0_linear)" stroke-width="2"/>
<defs>
<linearGradient id="paint0_linear" x1="22.3208" y1="1" x2="22.3208" y2="31" gradientUnits="userSpaceOnUse">
<stop/>
<stop offset="1" stop-color="#ED37C5"/>
</linearGradient>
</defs>
</svg>
