<svg width="68" height="49" viewBox="0 0 68 49" fill="none" xmlns="http://www.w3.org/2000/svg">
<path d="M28.6038 39.0755H5.03C5.00215 39.0755 4.98822 39.0755 4.97644 39.0754C3.33801 39.0625 2.01296 37.7375 2.00009 36.099C2 36.0873 2 36.0733 2 36.0455V5.03C2 5.00215 2 4.98822 2.00009 4.97644C2.01296 3.33801 3.33801 2.01296 4.97644 2.00009C4.98822 2 5.00215 2 5.03 2H62.9323C62.9601 2 62.974 2 62.9858 2.00009C64.6242 2.01296 65.9493 3.33801 65.9622 4.97644C65.9623 4.98822 65.9623 5.00215 65.9623 5.03V36.0455C65.9623 36.0733 65.9623 36.0873 65.9622 36.099C65.9493 37.7375 64.6242 39.0625 62.9858 39.0754C62.974 39.0755 62.9601 39.0755 62.9323 39.0755H39.0755M28.6038 39.0755V47M28.6038 39.0755H39.0755M39.0755 39.0755V47M20.9623 47H47.283" stroke="black" stroke-width="3"/>
</svg>
